<svg width="24" height="19" viewBox="0 0 24 19" fill="none" xmlns="http://www.w3.org/2000/svg"><path fill-rule="evenodd" clip-rule="evenodd" d="M5.14806 0.3946C5.32061 0.294312 5.52777 0.272448 5.71746 0.334504L15.7405 3.6135C16.1079 3.73371 16.3083 4.12902 16.1881 4.49646C16.0679 4.8639 15.6726 5.06431 15.3052 4.94411L13 5.49988L12.5 6.07579H11.6079C11.952 6.25204 12.0881 6.67386 11.9118 7.01794C11.7356 7.36203 11.3138 7.49808 10.9697 7.32182L2.68067 3.07582C2.45281 2.95911 2.30685 2.72731 2.30005 2.47138C2.29326 2.21546 2.42672 1.97624 2.64806 1.8476L5.14806 0.3946Z" fill="#8C8C8C"></path><path fill-rule="evenodd" clip-rule="evenodd" d="M20.6529 0.757514C21.0091 0.705791 21.3721 0.725813 21.7204 0.816406C22.0688 0.906998 22.3955 1.06633 22.6814 1.28503C22.9673 1.50374 23.2066 1.7774 23.3852 2.08992C23.5637 2.40244 23.678 2.74751 23.7213 3.10485C23.7646 3.46218 23.736 3.82457 23.6372 4.17068C23.5384 4.5168 23.3713 4.83967 23.1459 5.1203C22.9224 5.39861 22.6459 5.62981 22.3325 5.80054L11.8181 11.8087C11.7584 11.8429 11.694 11.868 11.627 11.8833L6.15596 13.1353C5.95526 13.1813 5.74452 13.1365 5.57981 13.013L1.57981 10.013C1.39117 9.8715 1.28644 9.64456 1.30118 9.40922C1.31591 9.17389 1.44814 8.96179 1.65296 8.84495L3.85296 7.58995C4.01624 7.4968 4.21012 7.47325 4.39095 7.52458L7.09194 8.29124L19.6539 1.11299C19.9601 0.929643 20.2997 0.80881 20.6529 0.757514Z" fill="#8C8C8C"></path><path fill-rule="evenodd" clip-rule="evenodd" d="M0.299805 17.4529C0.299805 17.0663 0.613205 16.7529 0.999805 16.7529H22.9998C23.3864 16.7529 23.6998 17.0663 23.6998 17.4529C23.6998 17.8395 23.3864 18.1529 22.9998 18.1529H0.999805C0.613205 18.1529 0.299805 17.8395 0.299805 17.4529Z" fill="#8C8C8C"></path></svg>