<svg width="17" height="16" viewBox="0 0 17 16" fill="none" xmlns="http://www.w3.org/2000/svg"><path d="M6.492 5.15934C6.492 5.29734 6.49334 5.41269 6.49534 5.49934L1.19066 9.33066C0.758 9.64334 0.5 10.148 0.5 10.6813L0.5 11C0.5 11.1007 0.545344 11.1953 0.623344 11.2587C0.701344 11.322 0.804 11.3467 0.902 11.326L6.872 10.0693L7.15266 12.876L5.264 14.764C5.202 14.8267 5.16666 14.9113 5.16666 15L5.16666 15.6667C5.16666 15.776 5.22066 15.878 5.31 15.9407C5.4 16.0027 5.51466 16.0173 5.61666 15.9787L7.96 15.1L8.184 15.772C8.22934 15.908 8.35666 16 8.5 16C8.64334 16 8.77066 15.908 8.816 15.772L9.04 15.1L11.3827 15.9787C11.4853 16.0173 11.6 16.0027 11.6893 15.9407C11.7793 15.878 11.8333 15.776 11.8333 15.6667L11.8333 15C11.8333 14.9113 11.798 14.8267 11.736 14.764L9.84731 12.8753L10.128 10.0687L16.098 11.3253C16.196 11.346 16.2986 11.3213 16.3766 11.258C16.4546 11.1953 16.5 11.1007 16.5 11L16.5 10.6813C16.5 10.148 16.242 9.64269 15.8093 9.33069L10.5047 5.49934C10.506 5.41269 10.508 5.29734 10.508 5.15934C10.508 3.23266 10.2473 -4.2607e-07 8.5 -3.49691e-07C6.75266 -2.73312e-07 6.492 3.23266 6.492 5.15934ZM9.49 2.91934C9.49666 2.946 9.5 2.97334 9.5 3C9.5 3.14934 9.39934 3.28534 9.24734 3.32266C9.06869 3.36731 8.888 3.25866 8.84334 3.08C8.84269 3.07866 8.72469 2.66666 8.5 2.66666C8.27531 2.66666 8.15734 3.07866 8.156 3.08266C8.10934 3.26 7.928 3.36731 7.75066 3.322C7.57266 3.27666 7.464 3.096 7.51 2.91934C7.59534 2.578 7.9 2 8.5 2C9.1 2 9.40466 2.578 9.49 2.91934Z" fill="#595959"></path></svg>