<svg width="17" height="16" viewBox="0 0 17 16" fill="none" xmlns="http://www.w3.org/2000/svg"><path d="M9.18667 1.24714L1.86 0.133809C1.52 0.0804752 1.17333 0.173809 0.913333 0.393809C0.653333 0.620475 0.5 0.947142 0.5 1.28714V15.3338C0.5 15.7005 0.8 16.0005 1.16667 16.0005H3.33333V12.5005C3.33333 11.8538 3.85333 11.3338 4.5 11.3338H6.16667C6.81333 11.3338 7.33333 11.8538 7.33333 12.5005V16.0005H10.1667V2.40048C10.1667 1.82714 9.75333 1.34048 9.18667 1.24714ZM4.16667 9.83381H3.16667C2.89067 9.83381 2.66667 9.60981 2.66667 9.33381C2.66667 9.05781 2.89067 8.83381 3.16667 8.83381H4.16667C4.44267 8.83381 4.66667 9.05781 4.66667 9.33381C4.66667 9.60981 4.44267 9.83381 4.16667 9.83381ZM4.16667 7.83381H3.16667C2.89067 7.83381 2.66667 7.60981 2.66667 7.33381C2.66667 7.05781 2.89067 6.83381 3.16667 6.83381H4.16667C4.44267 6.83381 4.66667 7.05781 4.66667 7.33381C4.66667 7.60981 4.44267 7.83381 4.16667 7.83381ZM4.16667 5.83381H3.16667C2.89067 5.83381 2.66667 5.60981 2.66667 5.33381C2.66667 5.05781 2.89067 4.83381 3.16667 4.83381H4.16667C4.44267 4.83381 4.66667 5.05781 4.66667 5.33381C4.66667 5.60981 4.44267 5.83381 4.16667 5.83381ZM4.16667 3.83381H3.16667C2.89067 3.83381 2.66667 3.60981 2.66667 3.33381C2.66667 3.05781 2.89067 2.83381 3.16667 2.83381H4.16667C4.44267 2.83381 4.66667 3.05781 4.66667 3.33381C4.66667 3.60981 4.44267 3.83381 4.16667 3.83381ZM7.5 9.83381H6.5C6.224 9.83381 6 9.60981 6 9.33381C6 9.05781 6.224 8.83381 6.5 8.83381H7.5C7.776 8.83381 8 9.05781 8 9.33381C8 9.60981 7.776 9.83381 7.5 9.83381ZM7.5 7.83381H6.5C6.224 7.83381 6 7.60981 6 7.33381C6 7.05781 6.224 6.83381 6.5 6.83381H7.5C7.776 6.83381 8 7.05781 8 7.33381C8 7.60981 7.776 7.83381 7.5 7.83381ZM7.5 5.83381H6.5C6.224 5.83381 6 5.60981 6 5.33381C6 5.05781 6.224 4.83381 6.5 4.83381H7.5C7.776 4.83381 8 5.05781 8 5.33381C8 5.60981 7.776 5.83381 7.5 5.83381ZM7.5 3.83381H6.5C6.224 3.83381 6 3.60981 6 3.33381C6 3.05781 6.224 2.83381 6.5 2.83381H7.5C7.776 2.83381 8 3.05781 8 3.33381C8 3.60981 7.776 3.83381 7.5 3.83381Z" fill="#595959"></path><path d="M15.5797 7.22838L10.833 6.23438V16.0004H15.333C15.9763 16.0004 16.4997 15.477 16.4997 14.8337V8.36838C16.4997 7.81771 16.1243 7.34904 15.5797 7.22838ZM13.9997 14.0004H12.9997C12.7237 14.0004 12.4997 13.7764 12.4997 13.5004C12.4997 13.2244 12.7237 13.0004 12.9997 13.0004H13.9997C14.2757 13.0004 14.4997 13.2244 14.4997 13.5004C14.4997 13.7764 14.2757 14.0004 13.9997 14.0004ZM13.9997 12.0004H12.9997C12.7237 12.0004 12.4997 11.7764 12.4997 11.5004C12.4997 11.2244 12.7237 11.0004 12.9997 11.0004H13.9997C14.2757 11.0004 14.4997 11.2244 14.4997 11.5004C14.4997 11.7764 14.2757 12.0004 13.9997 12.0004ZM13.9997 10.0004H12.9997C12.7237 10.0004 12.4997 9.77638 12.4997 9.50038C12.4997 9.22438 12.7237 9.00038 12.9997 9.00038H13.9997C14.2757 9.00038 14.4997 9.22438 14.4997 9.50038C14.4997 9.77638 14.2757 10.0004 13.9997 10.0004Z" fill="#595959"></path></svg>