<svg width="20" height="20" viewBox="0 0 20 20" fill="none" xmlns="http://www.w3.org/2000/svg"><path fill-rule="evenodd" clip-rule="evenodd" d="M20 10C20 15.5228 15.5228 20 10 20C4.47715 20 0 15.5228 0 10C0 4.47715 4.47715 0 10 0C15.5228 0 20 4.47715 20 10ZM6.84194 3.55806C7.08602 3.80214 7.08602 4.19786 6.84194 4.44194L5.50892 5.77496H13.6C13.9452 5.77496 14.225 6.05479 14.225 6.39996C14.225 6.74514 13.9452 7.02496 13.6 7.02496H5.50885L6.84194 8.35806C7.08602 8.60214 7.08602 8.99786 6.84194 9.24194C6.59786 9.48602 6.20214 9.48602 5.95806 9.24194L3.55806 6.84194C3.49397 6.77785 3.44671 6.70331 3.41628 6.6238C3.38945 6.55372 3.3757 6.47979 3.37503 6.40575L3.375 6.39996C3.375 6.30848 3.39466 6.22158 3.42998 6.14327C3.45313 6.09184 3.48359 6.0429 3.52137 5.99803C3.53425 5.98271 3.54785 5.96801 3.56212 5.954L5.95806 3.55806C6.20214 3.31398 6.59786 3.31398 6.84194 3.55806ZM13.1579 10.758C13.402 10.514 13.7977 10.514 14.0418 10.758L16.4317 13.1479C16.5509 13.2617 16.6251 13.4222 16.6251 13.6C16.6251 13.779 16.55 13.9403 16.4295 14.0542L14.0418 16.4419C13.7977 16.686 13.402 16.686 13.1579 16.4419C12.9138 16.1978 12.9138 15.8021 13.1579 15.558L14.4909 14.225H6.40015C6.05497 14.225 5.77515 13.9452 5.77515 13.6C5.77515 13.2549 6.05497 12.975 6.40015 12.975H14.491L13.1579 11.6419C12.9138 11.3978 12.9138 11.0021 13.1579 10.758Z" fill="#ff8917"></path></svg>